<?xml version="1.0" encoding="UTF-8" standalone="no"?> <svg width="64" height="64" viewBox="0 0 64 64" fill="none" xmlns="http://www.w3.org/2000/svg">
<path d="M20.67 8.5H9.33C7.7846 8.50264 6.30325 9.11772 5.21049 10.2105C4.11772 11.3033 3.50264 12.7846 3.5 14.33V49.67C3.50264 51.2154 4.11772 52.6967 5.21049 53.7895C6.30325 54.8823 7.7846 55.4974 9.33 55.5H20.67C22.2154 55.4974 23.6967 54.8823 24.7895 53.7895C25.8823 52.6967 26.4974 51.2154 26.5 49.67V14.33C26.4974 12.7846 25.8823 11.3033 24.7895 10.2105C23.6967 9.11772 22.2154 8.50264 20.67 8.5V8.5ZM23.5 49.67C23.5 50.4206 23.2018 51.1404 22.6711 51.6711C22.1404 52.2018 21.4206 52.5 20.67 52.5H9.33C8.57944 52.5 7.85962 52.2018 7.32889 51.6711C6.79816 51.1404 6.5 50.4206 6.5 49.67V14.33C6.5 13.5794 6.79816 12.8596 7.32889 12.3289C7.85962 11.7982 8.57944 11.5 9.33 11.5H20.67C21.4206 11.5 22.1404 11.7982 22.6711 12.3289C23.2018 12.8596 23.5 13.5794 23.5 14.33V49.67Z" fill="black"/>
<path d="M54.67 8.5H43.33C41.7846 8.50264 40.3033 9.11772 39.2105 10.2105C38.1177 11.3033 37.5026 12.7846 37.5 14.33V49.67C37.5026 51.2154 38.1177 52.6967 39.2105 53.7895C40.3033 54.8823 41.7846 55.4974 43.33 55.5H54.67C56.2154 55.4974 57.6967 54.8823 58.7895 53.7895C59.8823 52.6967 60.4974 51.2154 60.5 49.67V14.33C60.4974 12.7846 59.8823 11.3033 58.7895 10.2105C57.6967 9.11772 56.2154 8.50264 54.67 8.5V8.5ZM57.5 49.67C57.5 50.4206 57.2018 51.1404 56.6711 51.6711C56.1404 52.2018 55.4206 52.5 54.67 52.5H43.33C42.5794 52.5 41.8596 52.2018 41.3289 51.6711C40.7982 51.1404 40.5 50.4206 40.5 49.67V14.33C40.5 13.5794 40.7982 12.8596 41.3289 12.3289C41.8596 11.7982 42.5794 11.5 43.33 11.5H54.67C55.4206 11.5 56.1404 11.7982 56.6711 12.3289C57.2018 12.8596 57.5 13.5794 57.5 14.33V49.67Z" fill="black"/>
<path d="M15 24.5C14.6022 24.5 14.2206 24.658 13.9393 24.9393C13.658 25.2206 13.5 25.6022 13.5 26V39C13.5 39.3978 13.658 39.7794 13.9393 40.0607C14.2206 40.342 14.6022 40.5 15 40.5C15.3978 40.5 15.7794 40.342 16.0607 40.0607C16.342 39.7794 16.5 39.3978 16.5 39V26C16.5 25.6022 16.342 25.2206 16.0607 24.9393C15.7794 24.658 15.3978 24.5 15 24.5Z" fill="black"/>
<path d="M49 24.5C48.6022 24.5 48.2206 24.658 47.9393 24.9393C47.658 25.2206 47.5 25.6022 47.5 26V39C47.5 39.3978 47.658 39.7794 47.9393 40.0607C48.2206 40.342 48.6022 40.5 49 40.5C49.3978 40.5 49.7794 40.342 50.0607 40.0607C50.342 39.7794 50.5 39.3978 50.5 39V26C50.5 25.6022 50.342 25.2206 50.0607 24.9393C49.7794 24.658 49.3978 24.5 49 24.5Z" fill="black"/>
</svg>
